<svg width="24" height="24" viewBox="0 0 24 24" fill="none" xmlns="http://www.w3.org/2000/svg">
<path d="M11.9413 18.9999C12.3497 18.9999 12.6948 18.8589 12.9768 18.577C13.2587 18.2951 13.3997 17.9499 13.3997 17.5416C13.3997 17.1333 13.2587 16.7881 12.9768 16.5062C12.6948 16.2242 12.3497 16.0833 11.9413 16.0833C11.533 16.0833 11.1879 16.2242 10.9059 16.5062C10.624 16.7881 10.483 17.1333 10.483 17.5416C10.483 17.9499 10.624 18.2951 10.9059 18.577C11.1879 18.8589 11.533 18.9999 11.9413 18.9999ZM10.8913 14.5083H13.0497C13.0497 13.8666 13.1226 13.361 13.2684 12.9916C13.4143 12.6221 13.8275 12.1166 14.508 11.4749C15.0136 10.9694 15.4122 10.4881 15.7038 10.0312C15.9955 9.57422 16.1413 9.02492 16.1413 8.38325C16.1413 7.29436 15.7427 6.45825 14.9455 5.87492C14.1483 5.29159 13.2052 4.99992 12.1163 4.99992C11.008 4.99992 10.1087 5.29159 9.41842 5.87492C8.72815 6.45825 8.2469 7.15825 7.97468 7.97492L9.89968 8.73325C9.9969 8.38325 10.2156 8.00409 10.5559 7.59575C10.8962 7.18742 11.4163 6.98325 12.1163 6.98325C12.7386 6.98325 13.2052 7.15339 13.5163 7.49367C13.8275 7.83395 13.983 8.20825 13.983 8.61659C13.983 9.00548 13.8663 9.37006 13.633 9.71034C13.3997 10.0506 13.108 10.3666 12.758 10.6583C11.9025 11.4166 11.3775 11.9902 11.183 12.3791C10.9886 12.768 10.8913 13.4777 10.8913 14.5083ZM11.9997 23.6666C10.3858 23.6666 8.86912 23.3603 7.44968 22.7478C6.03023 22.1353 4.79551 21.3041 3.74551 20.2541C2.69551 19.2041 1.86426 17.9694 1.25176 16.5499C0.639258 15.1305 0.333008 13.6138 0.333008 11.9999C0.333008 10.386 0.639258 8.86936 1.25176 7.44992C1.86426 6.03047 2.69551 4.79575 3.74551 3.74575C4.79551 2.69575 6.03023 1.8645 7.44968 1.252C8.86912 0.639502 10.3858 0.333252 11.9997 0.333252C13.6136 0.333252 15.1302 0.639502 16.5497 1.252C17.9691 1.8645 19.2038 2.69575 20.2538 3.74575C21.3038 4.79575 22.1351 6.03047 22.7476 7.44992C23.3601 8.86936 23.6663 10.386 23.6663 11.9999C23.6663 13.6138 23.3601 15.1305 22.7476 16.5499C22.1351 17.9694 21.3038 19.2041 20.2538 20.2541C19.2038 21.3041 17.9691 22.1353 16.5497 22.7478C15.1302 23.3603 13.6136 23.6666 11.9997 23.6666ZM11.9997 21.3333C14.6052 21.3333 16.8122 20.4291 18.6205 18.6208C20.4288 16.8124 21.333 14.6055 21.333 11.9999C21.333 9.39436 20.4288 7.18742 18.6205 5.37909C16.8122 3.57075 14.6052 2.66659 11.9997 2.66659C9.39412 2.66659 7.18718 3.57075 5.37884 5.37909C3.57051 7.18742 2.66634 9.39436 2.66634 11.9999C2.66634 14.6055 3.57051 16.8124 5.37884 18.6208C7.18718 20.4291 9.39412 21.3333 11.9997 21.3333Z" fill="#1C1B1F"/>
</svg>
